<?xml version="1.0" standalone="no"?>
<!DOCTYPE svg PUBLIC "-//W3C//DTD SVG 1.1//EN" "http://www.w3.org/Graphics/SVG/1.1/DTD/svg11.dtd" >
<svg xmlns="http://www.w3.org/2000/svg">
<metadata>
<json>
<![CDATA[
{
	"fontFamily": "ui-icons",
	"description": "Font generated by IcoMoon.",
	"version": "Version 1.0",
	"majorVersion": 0,
	"fontId": "ui-icons",
	"psName": "ui-icons",
	"subFamily": "Regular",
	"fullName": "ui-icons"
}
]]>
</json>
</metadata>
<defs>
<font id="ui-icons" horiz-adv-x="1024">
<font-face units-per-em="1024" ascent="960" descent="-64" />
<missing-glyph horiz-adv-x="1024" />
<glyph unicode="&#x20;" horiz-adv-x="512" d="" />
<glyph unicode="&#xe900;" glyph-name="cart" data-tags="cart" horiz-adv-x="1293" d="M646.737 43.789c0-59.53-48.259-107.789-107.789-107.789s-107.789 48.259-107.789 107.789c0 59.53 48.259 107.789 107.789 107.789s107.789-48.259 107.789-107.789zM1131.789 43.789c0-59.53-48.259-107.789-107.789-107.789s-107.789 48.259-107.789 107.789c0 59.53 48.259 107.789 107.789 107.789s107.789-48.259 107.789-107.789zM1174.905 205.474h-786.863l-161.684 646.737h-226.358v107.789h312.589l161.684-646.737h614.4l97.011 388.042 107.789-21.558z" />
<glyph unicode="&#xe901;" glyph-name="account-hover" data-tags="account-hover" horiz-adv-x="895" d="M671.475 159.825h-447.65c-123.104 0-223.825-100.721-223.825-223.825h895.301c0 128.699-100.721 223.825-223.825 223.825zM783.388 607.475c0-185.423-150.315-335.738-335.738-335.738s-335.738 150.315-335.738 335.738c0 185.423 150.315 335.738 335.738 335.738s335.738-150.315 335.738-335.738z" />
<glyph unicode="&#xe902;" glyph-name="account" data-tags="account" horiz-adv-x="910" d="M910.222-64h-113.778c0 62.578-51.2 113.778-113.778 113.778h-455.111c-62.578 0-113.778-51.2-113.778-113.778h-113.778c0 125.156 102.4 227.556 227.556 227.556h455.111c125.156 0 227.556-102.4 227.556-227.556zM455.111 277.333c-187.733 0-341.333 153.6-341.333 341.333s153.6 341.333 341.333 341.333 341.333-153.6 341.333-341.333-153.6-341.333-341.333-341.333zM455.111 846.222c-125.156 0-227.556-102.4-227.556-227.556s102.4-227.556 227.556-227.556c125.156 0 227.556 102.4 227.556 227.556s-102.4 227.556-227.556 227.556z" />
<glyph unicode="&#xe903;" glyph-name="arrow2" data-tags="arrow (2)" horiz-adv-x="1271" d="M1238.281 463.17l-489.244 489.244-26.548-26.548 470.281-470.281h-1168.119v-37.926h1168.119l-457.007-457.007 26.548-26.548 502.519 502.519z" />
<glyph unicode="&#xe904;" glyph-name="nav-arrow" data-tags="nav-arrow" horiz-adv-x="1630" d="M1629.746 758.085l-201.915 201.915-605.746-605.746-620.169 605.746-201.915-201.915 605.746-620.169 216.338-201.915 201.915 201.915z" />
<glyph unicode="&#xe905;" glyph-name="ICON-Zoom-2" data-tags="ICON-Zoom-2" horiz-adv-x="1013" d="M1013.053 635.584c0-13.74-11.138-24.879-24.879-24.879v0c-13.629 0.273-24.605 11.25-24.878 24.853v238.86l-323.918-323.918c-4.484-4.398-10.632-7.112-17.415-7.112s-12.931 2.714-17.419 7.116l0.004-0.004c-4.545 4.509-7.359 10.758-7.359 17.664s2.814 13.155 7.357 17.662l324.418 324.418h-240.327c-13.74 0-24.879 11.138-24.879 24.879s11.138 24.879 24.879 24.879v0h298.542c13.74 0 24.879-11.138 24.879-24.879v0zM373.675 345.003l-323.918-323.421v238.336c-0.018 7-2.867 13.332-7.463 17.912l-0.001 0.001c-4.32 4.308-10.281 6.972-16.865 6.972-0.193 0-0.386-0.002-0.578-0.007l0.029 0.001c-13.74 0-24.879-11.138-24.879-24.879v0-298.542c0-13.74 11.138-24.879 24.879-24.879v0h298.542c13.74 0 24.879 11.138 24.879 24.879v0c-0.273 13.629-11.25 24.605-24.853 24.878h-239.357l324.914 324.416c4.398 4.484 7.112 10.632 7.112 17.415s-2.714 12.931-7.116 17.419l0.004-0.004c-4.484 4.399-10.633 7.114-17.417 7.114-7.030 0-13.379-2.916-17.903-7.604l-0.007-0.007z" />
<glyph unicode="&#xe906;" glyph-name="trackingicons_handcrafted" data-tags="tracking icons_handcrafted" horiz-adv-x="876" d="M512-64h-412.838c-16.19 0-28.332 22.261-28.332 50.593 0 4.047 2.024 6.071 6.071 6.071s6.071-2.024 6.071-6.071c0-22.261 8.095-38.451 16.19-38.451h414.862c8.095 0 16.19 16.19 16.19 38.451 0 4.047 2.024 6.071 6.071 6.071s6.071-2.024 6.071-6.071c0-28.332-14.166-50.593-30.356-50.593zM58.688-17.455c-30.356 0-54.64 22.261-58.688 52.617l54.64 744.727c4.047 32.379 30.356 54.64 62.735 52.617h368.316c32.379 2.024 58.688-20.237 62.735-52.617l20.237-289.391c0-4.047-2.024-6.071-6.071-6.071s-6.071 2.024-6.071 6.071l-20.237 289.391c-2.024 24.285-24.285 42.498-50.593 40.474h-368.316c-26.308 2.024-48.569-16.19-50.593-40.474l-54.64-744.727c2.024-24.285 24.285-42.498 50.593-40.474h477.597c26.308-2.024 48.569 16.19 50.593 42.498l-22.261 317.723c0 4.047 2.024 6.071 6.071 6.071s6.071-2.024 6.071-6.071l22.261-319.747c-4.047-32.379-30.356-56.664-62.735-54.64h-477.597c-2.024 2.024-4.047 2.024-4.047 2.024zM374.387 822.387c-4.047 0-6.071 2.024-6.071 6.071v22.261c0 6.071-4.047 10.119-10.119 10.119h-113.328c-6.071 0-10.119-4.047-10.119-10.119v-22.261c0-4.047-2.024-6.071-6.071-6.071s-6.071 2.024-6.071 6.071v22.261c0 12.142 10.119 22.261 22.261 22.261h113.328c12.142 0 22.261-10.119 22.261-22.261v-22.261c0-4.047-2.024-6.071-6.071-6.071zM594.972 41.233h-586.877c-4.047 0-6.071 2.024-6.071 6.071s2.024 6.071 6.071 6.071h586.877c4.047 0 6.071-2.024 6.071-6.071s-2.024-6.071-6.071-6.071zM485.692 172.775h-469.502c-4.047 0-6.071 2.024-6.071 6.071s2.024 6.071 6.071 6.071h469.502c4.047 0 6.071-2.024 6.071-6.071s-2.024-6.071-6.071-6.071zM584.854 172.775h-76.901c-4.047 0-6.071 2.024-6.071 6.071s2.024 6.071 6.071 6.071h76.901c4.047 0 6.071-2.024 6.071-6.071s-2.024-6.071-6.071-6.071zM518.071 304.316h-489.739c-4.047 0-6.071 2.024-6.071 6.071s2.024 6.071 6.071 6.071h491.763c4.047 0 6.071-2.024 6.071-6.071s-4.047-6.071-8.095-6.071zM576.759 304.316h-18.213c-4.047 0-6.071 2.024-6.071 6.071s2.024 6.071 6.071 6.071h18.213c4.047 0 6.071-2.024 6.071-6.071s-2.024-6.071-6.071-6.071zM550.451 435.858h-514.024c-4.047 0-6.071 2.024-6.071 6.071s2.024 6.071 6.071 6.071h516.047c4.047 0 6.071-2.024 6.071-6.071s-4.047-6.071-8.095-6.071zM556.522 567.399h-512c-4.047 0-6.071 2.024-6.071 6.071s2.024 6.071 6.071 6.071h509.976c4.047 0 6.071-2.024 6.071-6.071s-2.024-6.071-4.047-6.071zM548.427 698.941h-493.787c-4.047 0-6.071 2.024-6.071 6.071s2.024 6.071 6.071 6.071h493.787c4.047 0 6.071-2.024 6.071-6.071s-4.047-6.071-6.071-6.071zM805.439 794.055c-2.024 0-2.024 0-4.047 0-30.356 20.237-70.83 20.237-119.399 4.047-4.047-2.024-6.071 0-8.095 4.047s0 6.071 4.047 8.095c52.617 18.213 95.115 16.19 129.518-6.071 2.024-2.024 4.047-6.071 2.024-8.095 0-2.024-2.024-2.024-4.047-2.024zM548.427 721.202c-2.024 0-4.047 0-4.047 2.024-2.024 2.024-2.024 6.071 0 8.095 28.332 24.285 58.688 44.522 91.067 60.711 2.024 2.024 6.071 0 8.095-2.024s0-6.071-2.024-8.095c-32.379-16.19-60.711-36.427-89.043-60.711-2.024 0-4.047 0-4.047 0zM449.265 18.972c-2.024 0-2.024 2.024 0 0-4.047 2.024-6.071 4.047-6.071 8.095l210.466 854.008c4.047 28.332 20.237 52.617 42.498 68.806 18.213 10.119 32.379 12.142 46.545 8.095 14.166-6.071 22.261-20.237 28.332-42.498 6.071-24.285 4.047-48.569-4.047-72.854l-313.676-819.605c0-2.024-2.024-4.047-4.047-4.047zM730.561 947.858c-8.095 0-16.19-4.047-26.308-10.119-20.237-14.166-34.403-36.427-38.451-60.711l-188.206-754.846 277.249 726.514c8.095 20.237 10.119 42.498 4.047 64.759-4.047 18.213-12.142 30.356-22.261 34.403-2.024 0-4.047 0-6.071 0zM663.779 705.012c0 0-2.024 0-2.024 0-6.071 2.024-10.119 8.095-8.095 12.142v0l40.474 163.921c2.024 10.119 6.071 18.213 14.166 24.285 6.071 4.047 12.142 6.071 18.213 4.047s10.119-8.095 12.142-16.19c2.024-8.095 2.024-16.19-2.024-24.285l-62.735-155.826c0-2.024-2.024-4.047-4.047-6.071s-4.047-2.024-6.071-2.024zM720.443 897.265c-2.024 0-4.047 0-6.071-2.024-6.071-4.047-8.095-10.119-10.119-16.19l-36.427-151.779 58.688 145.708c0 6.071 2.024 10.119 0 16.19s-4.047 8.095-6.071 8.095c2.024 0 0 0 0 0zM870.198 296.221c-2.024 0-2.024 0-4.047 0-4.047 2.024-113.328 66.783-127.494 147.731 0 4.047 2.024 6.071 4.047 6.071 4.047 0 6.071-2.024 6.071-4.047 12.142-76.901 119.399-139.636 121.423-139.636 2.024-2.024 4.047-6.071 2.024-8.095 2.024 0 0-2.024-2.024-2.024zM746.751 441.929c-2.024 0-6.071 2.024-6.071 4.047-6.071 32.379 16.19 82.972 40.474 135.589 36.427 82.972 78.925 174.040 20.237 212.49-28.332 18.213-64.759 22.261-95.115 10.119-4.047-2.024-6.071 0-8.095 4.047s0 6.071 4.047 8.095c36.427 12.142 74.877 8.095 107.257-12.142 66.783-42.498 22.261-139.636-16.19-226.656-22.261-50.593-44.522-101.186-40.474-129.518 0-2.024-2.024-6.071-6.071-6.071 0 0 0 0 0 0z" />
<glyph unicode="&#xe907;" glyph-name="ICON-TXT" data-tags="ICON-TXT" horiz-adv-x="1180" d="M748.656 960h-270.822c-238.023-0.092-430.944-193.069-430.944-431.105 0-108.254 39.901-207.189 105.798-282.9l-0.444 0.521-135.16-187.918c-10.535-12.737-16.925-29.238-16.925-47.231s6.39-34.494 17.025-47.356l-0.1 0.125c14.774-16.921 36.234-27.683 60.216-28.136l0.079-0.001c14.77 0.513 28.531 4.357 40.707 10.798l-0.511-0.246 238.163 161.79 8.039 5.025c34.162-9.752 73.416-15.429 113.974-15.576h270.905c238.093 0 431.105 193.012 431.105 431.105s-193.012 431.105-431.105 431.105v0zM748.656 148.035h-270.822c-40.282 0.436-78.95 6.649-115.436 17.846l2.887-0.762-15.074 3.517-11.054-10.049-9.547-7.034-236.656-162.292c-3.986-2.181-8.733-3.463-13.779-3.463-8.982 0-17.015 4.063-22.36 10.452l-0.037 0.046c-3.713 4.287-5.975 9.918-5.975 16.079s2.262 11.792 6.001 16.109l-0.026-0.031 160.283 222.084-14.571 15.074c-66.211 68.286-107.026 161.526-107.026 264.299 0 209.788 170.067 379.855 379.855 379.855 0.884 0 1.768-0.003 2.651-0.009l-0.136 0.001h270.822c210.343 0 380.86-170.517 380.86-380.86s-170.517-380.86-380.86-380.86v0zM346.693 613.307h-71.348v47.231h191.937v-47.231h-69.339v-217.562h-50.245zM609.476 485.182l-50.245-89.437h-63.812l83.407 134.155-77.88 130.638h62.807l50.245-89.437 50.245 89.437h61.802l-85.417-130.638 81.9-134.155h-65.319zM822.014 613.307h-69.339v47.231h191.937v-47.231h-69.841v-217.562h-52.758z" />
<glyph unicode="&#xe908;" glyph-name="ICON-Right-Arrow-2" data-tags="ICON-Right-Arrow-2" horiz-adv-x="424" d="M28.662-64c-0.037 0-0.081 0-0.124 0-4.17 0-8.014 1.4-11.086 3.755l0.044-0.032c-4.404 3.437-7.209 8.746-7.209 14.709 0 4.29 1.452 8.241 3.891 11.389l-0.032-0.043 372.228 482.036-372.228 482.036c-2.427 3.156-3.89 7.164-3.89 11.513 0 6.032 2.814 11.408 7.2 14.885l0.039 0.030c3.112 2.32 7.033 3.715 11.28 3.715 5.954 0 11.267-2.741 14.748-7.030l0.028-0.035 381.534-493.575c2.41-3.106 3.864-7.060 3.864-11.353s-1.454-8.247-3.895-11.395l0.032 0.042-381.534-493.575c-3.592-4.275-8.915-6.996-14.876-7.072h-0.013z" />
<glyph unicode="&#xe909;" glyph-name="bars" data-tags="bars" d="M0 652.8h1024zM1024 704h-1024v-102.4h1024v102.4zM0 243.2h1024zM1024 294.4h-1024v-102.4h1024v102.4z" />
<glyph unicode="&#xe90a;" glyph-name="plus" data-tags="plus" d="M921.6 448c0 0 0 0 0 0 0-15.36-10.24-25.6-25.6-25.6h-358.4v-358.4c0-15.36-10.24-25.6-25.6-25.6-10.24 0-20.48 5.12-25.6 15.36 0 5.12 0 5.12 0 10.24v358.4h-358.4c-15.36 0-25.6 10.24-25.6 25.6 0 0 0 0 0 0s0 0 0 0c0 15.36 10.24 25.6 25.6 25.6h358.4v358.4c0 15.36 10.24 25.6 25.6 25.6 10.24 0 20.48-5.12 25.6-15.36 0-5.12 0-5.12 0-10.24v-358.4h358.4c15.36 0 25.6-10.24 25.6-25.6 0 0 0 0 0 0z" />
<glyph unicode="&#xe90b;" glyph-name="minus-icon" data-tags="minus-icon" horiz-adv-x="1003" d="M65.289 510.669c-34.608 0-62.669-28.058-62.669-62.669v0c0-34.608 28.058-62.669 62.669-62.669v0h877.331c34.608 0 62.669 28.058 62.669 62.669v0c0 34.608-28.058 62.669-62.669 62.669v0z" />
<glyph unicode="&#xe90c;" glyph-name="plus-icon" data-tags="plus-icon" d="M573.653 898.108c0 34.181-27.708 61.89-61.89 61.89s-61.89-27.71-61.89-61.89v-388.219h-388.219c-34.181 0-61.89-27.709-61.89-61.89s27.709-61.89 61.89-61.89h388.219v-388.219c0-34.182 27.709-61.891 61.89-61.891 34.182 0 61.89 27.709 61.89 61.891v388.219h388.22c34.181 0 61.89 27.709 61.89 61.89s-27.709 61.89-61.89 61.89h-388.22v388.219z" />
<glyph unicode="&#xe90d;" glyph-name="big-plus-icon" data-tags="big-plus-icon" d="M558.545 913.454c0 25.706-20.839 46.545-46.545 46.545s-46.545-20.839-46.545-46.545v-418.909h-418.909c-25.706 0-46.545-20.839-46.545-46.545s20.838-46.545 46.545-46.545h418.909v-418.909c0-25.703 20.839-46.545 46.545-46.545s46.545 20.842 46.545 46.545v418.909h418.909c25.703 0 46.545 20.839 46.545 46.545s-20.842 46.545-46.545 46.545h-418.909v418.909z" />
<glyph unicode="&#xe90e;" glyph-name="search" data-tags="search" d="M684.416 283.477c-1.451-1.109-2.859-2.347-4.224-3.712s-2.56-2.731-3.712-4.224c-53.675-51.755-126.677-83.541-207.147-83.541-82.475 0-157.099 33.365-211.2 87.467s-87.467 128.725-87.467 211.2 33.365 157.099 87.467 211.2 128.725 87.467 211.2 87.467 157.099-33.365 211.2-87.467 87.467-128.725 87.467-211.2c0-80.469-31.787-153.472-83.584-207.189zM926.165 94.165l-156.8 156.8c52.523 65.707 83.968 149.035 83.968 239.701 0 106.027-43.008 202.069-112.469 271.531s-165.504 112.469-271.531 112.469-202.069-43.008-271.531-112.469-112.469-165.504-112.469-271.531 43.008-202.069 112.469-271.531 165.504-112.469 271.531-112.469c90.667 0 173.995 31.445 239.701 83.968l156.8-156.8c16.683-16.683 43.691-16.683 60.331 0s16.683 43.691 0 60.331z" />
<glyph unicode="&#xe90f;" glyph-name="md-Gallery-Left-Arrow1" data-tags="md-Gallery-Left-Arrow (1)" horiz-adv-x="569" d="M542.17-37.279c16.662 16.663 16.662 43.674 0 60.336l-424.941 424.943 424.941 424.941c16.662 16.662 16.662 43.677 0 60.34s-43.678 16.662-60.34 0l-455.111-455.111c-16.662-16.662-16.662-43.678 0-60.34l455.111-455.109c16.662-16.663 43.678-16.663 60.34 0z" />
<glyph unicode="&#xe910;" glyph-name="md-Gallery-Right-Arrow" data-tags="md-Gallery-Right-Arrow" horiz-adv-x="569" d="M26.719-37.279c-16.662 16.663-16.662 43.674 0 60.336l424.941 424.943-424.941 424.941c-16.662 16.662-16.662 43.677 0 60.34s43.678 16.662 60.34 0l455.111-455.111c16.662-16.662 16.662-43.678 0-60.34l-455.111-455.109c-16.662-16.663-43.677-16.663-60.34 0z" />
<glyph unicode="&#xe911;" glyph-name="sm-Gallery-Left-Arrow1" data-tags="sm-Gallery-Left-Arrow (1)" horiz-adv-x="630" d="M540.659 923.004c23.071-23.071 23.071-60.477 0-83.547l-378.329-378.329 378.329-378.326c23.071-23.072 23.071-60.479 0-83.551s-60.477-23.072-83.547 0l-420.103 420.103c-23.071 23.071-23.071 60.476 0 83.547l420.103 420.102c23.071 23.071 60.476 23.071 83.547 0z" />
<glyph unicode="&#xe912;" glyph-name="sm-Gallery-Right-Arrow1" data-tags="sm-Gallery-Right-Arrow (1)" horiz-adv-x="630" d="M36.996-0.748c-23.071 23.072-23.071 60.479 0 83.551l378.329 378.325-378.329 378.329c-23.071 23.072-23.071 60.477 0 83.548s60.477 23.071 83.547 0l420.102-420.103c23.072-23.071 23.072-60.477 0-83.547l-420.102-420.102c-23.071-23.072-60.476-23.072-83.547 0z" />
<glyph unicode="&#xe913;" glyph-name="black_solid_circle-white_bg" data-tags="black_solid_circle-white_bg" horiz-adv-x="1389" d="M226.47-39.392c-57.63 87.794-91.207 192.576-91.207 305.217 0 307.676 250.285 557.961 557.961 557.961s557.962-250.285 557.962-557.961c0-112.562-33.657-217.423-91.207-305.217h156.22c45.326 92.16 70.886 195.751 70.886 305.217 0 382.611-311.248 693.78-693.781 693.78s-693.78-311.248-693.78-693.78c0-109.466 25.56-213.057 70.886-305.217h156.060zM702.589 595.489c-101.606 0-218.533-47.866-282.037-98.51l57.947-122.007c50.882 46.596 133.199 86.365 207.42 86.365 70.569 0 109.466-23.576 109.466-71.124 0-31.99-25.879-50.009-74.619-54.455-183.050-16.829-325.299-73.982-325.299-214.485 0-111.449 80.332-178.763 212.5-178.763 88.429 0 157.887 49.136 195.355 113.989v-95.811h164.793v401.583c0.079 165.824-115.26 233.218-265.527 233.218zM654.485 71.263c-53.423 0-82.714 22.861-82.714 60.408 0 78.269 95.653 97.162 220.2 97.162 0-81.921-54.851-157.57-137.486-157.57z" />
<glyph unicode="&#xe914;" glyph-name="play" data-tags="play" d="M361.088 605.824l278.54-157.824-278.54-157.812v315.636zM335.628 668.73c-12.253-0.849-21.76-10.845-21.807-22.9v-395.636c-0.035-12.742 10.461-23.087 23.436-23.11 4.154-0.012 8.239 1.059 11.834 3.107l349.091 197.818c11.252 6.342 15.151 20.433 8.681 31.476-2.071 3.549-5.073 6.481-8.681 8.518l-349.091 197.818c-4.084 2.269-8.774 3.281-13.463 2.909v0zM512 913.455c257.338 0 465.455-208.105 465.455-465.455 0-257.338-208.116-465.455-465.455-465.455s-465.455 208.116-465.455 465.455c0 257.35 208.116 465.455 465.455 465.455v0zM512 960c-282.496 0-512-229.504-512-512 0-282.484 229.504-512 512-512 282.484 0 512 229.516 512 512 0 282.496-229.516 512-512 512v0z" />
<glyph unicode="&#xe915;" glyph-name="contained-close" data-tags="contained-close" d="M682.656 618.656l-341.312-341.312zM341.344 618.656l341.312-341.312zM341.312 661.312c-11.759-0.010-22.403-4.777-30.112-12.48v0c-7.718-7.719-12.491-18.382-12.491-30.16s4.774-22.441 12.491-30.16l140.48-140.512-140.48-140.48c-7.718-7.719-12.491-18.382-12.491-30.16s4.774-22.441 12.491-30.16v0c7.717-7.708 18.374-12.475 30.144-12.475s22.427 4.767 30.144 12.476v0l140.512 140.48 140.48-140.48c7.719-7.718 18.382-12.491 30.16-12.491s22.441 4.774 30.16 12.491v0c7.708 7.717 12.475 18.374 12.475 30.144s-4.767 22.427-12.476 30.144v0l-140.48 140.512 140.48 140.48c7.718 7.719 12.491 18.382 12.491 30.16s-4.774 22.441-12.491 30.16v0c-7.717 7.708-18.374 12.475-30.144 12.475s-22.427-4.767-30.144-12.476v0l-140.512-140.48-140.48 140.48c-7.721 7.73-18.392 12.512-30.181 12.512-0.010 0-0.019 0-0.029 0h0.001z" />
<glyph unicode="&#xe916;" glyph-name="Icon-Lookup" data-tags="Icon-Lookup" d="M634.624 569.462c0 134.805-109.281 244.086-244.086 244.086s-244.086-109.281-244.086-244.086c0-134.804 109.281-244.086 244.086-244.086s244.086 109.281 244.086 244.086zM575.189 225.251c-54.981-29.557-117.858-46.329-184.651-46.329-215.689 0-390.538 174.852-390.538 390.54s174.849 390.538 390.538 390.538c215.688 0 390.54-174.849 390.54-390.538 0-96.004-34.64-183.917-92.108-251.922l245.342-286.227-111.199-95.312-247.924 289.251z" />
<glyph unicode="&#xe91f;" glyph-name="close" data-tags="close" horiz-adv-x="1059" d="M1035.77 41.931l-423.724 423.724 400.184 388.414c23.54 23.54 23.54 58.851 0 82.391s-58.851 23.54-82.391 11.77l-400.184-400.184-400.184 400.184c-23.54 11.77-58.851 11.77-82.391-11.77s-23.54-58.851 0-82.391l400.184-388.414-435.494-423.724c-11.77-23.54-11.77-58.851 0-82.391 11.77-11.77 23.54-11.77 47.080-11.77 11.77 0 35.31 0 47.080 11.77l423.724 423.724 423.724-423.724c11.77-11.77 23.54-11.77 47.080-11.77s35.31 0 47.080 11.77c11.77 23.54 11.77 58.851-11.77 82.391z" />
<glyph unicode="&#xe920;" glyph-name="pasue" data-tags="pasue" d="M512 960c-282.77 0-512-229.23-512-512s229.23-512 512-512c282.77 0 512 229.23 512 512v0c-0.248 282.67-229.33 511.752-511.976 512h-0.024zM512-17.375c-257.020 0-465.375 208.356-465.375 465.375s208.356 465.375 465.375 465.375c257.020 0 465.375-208.356 465.375-465.375v0c0-0.065 0-0.141 0-0.218 0-256.899-208.258-465.157-465.157-465.157-0.077 0-0.154 0-0.23 0h0.012zM437.27 226.86h-69.501c0 0 0 0 0 0-29.765 0-53.908 24.067-54.032 53.803v334.664c0 29.841 24.191 54.032 54.032 54.032v0h69.501c29.841 0 54.032-24.191 54.032-54.032v0-334.652c-0.124-29.747-24.267-53.814-54.032-53.814 0 0 0 0 0 0v0zM367.769 625.566c-5.776 0-10.458-4.682-10.458-10.458v0-334.434c0.122-5.681 4.756-10.24 10.456-10.24 0.001 0 0.002 0 0.002 0h69.501c0.001 0 0.001 0 0.002 0 5.699 0 10.333 4.559 10.455 10.229v334.663c0 5.776-4.682 10.458-10.458 10.458v0zM661.46 226.86h-69.501c0 0 0 0 0 0-29.765 0-53.908 24.067-54.032 53.803v334.664c0 29.841 24.191 54.032 54.032 54.032h69.501c29.841 0 54.032-24.191 54.032-54.032v0-334.652c-0.124-29.747-24.267-53.814-54.032-53.814 0 0 0 0 0 0v0zM591.959 625.566c-5.776 0-10.458-4.682-10.458-10.458v0-334.434c0.122-5.681 4.756-10.24 10.456-10.24 0.001 0 0.002 0 0.002 0h69.501c0.001 0 0.001 0 0.002 0 5.699 0 10.333 4.559 10.455 10.229v334.663c0 5.776-4.682 10.458-10.458 10.458v0z" />
<glyph unicode="&#xe92a;" glyph-name="burrow_logo" data-tags="burrow_logo" horiz-adv-x="7075" d="M202.864 388.817c2.415-94.448 12.075-168.656 31.396-240.616h362.258c106.262 0 156.978 42.726 156.978 121.433 0 76.458-53.131 121.433-144.903 121.433h-405.728v-2.249zM234.26 780.1c-16.905-69.711-28.981-141.671-31.396-231.621h393.653c84.527 0 135.243 38.229 135.243 114.686 0 74.209-50.716 114.686-135.243 114.686h-362.258v2.249zM0 463.026c0 164.159 21.735 323.82 65.206 481.233h555.462c222.185 0 321.202-116.935 321.202-249.611 0-92.199-38.641-175.403-125.583-222.626 118.337-51.721 149.733-146.169 149.733-218.129 0-159.661-120.753-269.85-362.258-269.85h-538.556c-43.471 155.164-65.206 314.825-65.206 478.984v0zM1630.159-31.699c263.24 0 432.294 107.94 487.84 373.293 31.396 148.418 28.981 395.78-21.735 602.665h-207.694c43.471-193.393 60.376-411.521 31.396-550.944-33.811-152.915-130.413-256.358-289.806-256.358s-255.995 103.443-289.806 256.358c-31.396 139.423-14.49 357.551 31.396 550.944h-207.694c-53.131-206.885-53.131-456.496-21.735-604.914 55.546-263.104 224.6-371.044 487.84-371.044v0zM5074.021 789.095c-183.544 0-367.088-101.194-367.088-326.069 0-233.87 176.299-326.069 367.088-326.069s367.088 98.945 367.088 326.069c0 233.87-183.544 326.069-367.088 326.069v0zM5074.021 960c311.541 0 572.367-164.159 572.367-496.974 0-344.059-272.901-496.974-572.367-496.974-301.881 0-572.367 170.905-572.367 496.974 0 321.571 260.825 496.974 572.367 496.974v0zM7018.137 944.259h-200.449c19.32-101.194 31.396-204.636 31.396-310.328 0-155.164-24.151-312.576-70.036-463.243l-272.901 595.919h-149.733l-272.901-595.919c-45.886 148.418-70.036 305.83-70.036 460.994 0 105.691 9.66 209.134 31.396 310.328h-207.694c-16.905-105.691-26.566-209.134-26.566-312.576 0-220.378 43.471-440.755 125.583-649.889h258.41l231.845 508.218 231.845-508.218h255.995c82.112 209.134 125.583 429.511 125.583 649.889 4.83 107.94-4.83 211.383-21.735 314.825v0zM3047.794-15.958h227.015l-219.77 377.79c115.922 53.97 188.374 137.174 188.374 281.094 0 184.398-132.828 303.581-381.578 303.581h-483.010c-43.471-157.413-65.206-285.591-65.206-449.75s21.735-355.303 65.206-512.715h210.109c-31.396 101.194-53.131 236.119-65.206 341.81h330.862l193.204-341.81zM2514.068 494.509c0 130.428 9.66 191.144 31.396 278.845h287.391c135.243 0 198.034-44.975 198.034-148.418 0-105.691-70.036-139.423-198.034-139.423h-318.787v8.995zM4163.547-15.958h227.015l-219.77 377.79c115.922 53.97 188.374 137.174 188.374 281.094 0 184.398-132.828 303.581-381.578 303.581h-483.010c-43.471-157.413-65.206-285.591-65.206-449.75s21.735-355.303 65.206-512.715h210.109c-31.396 101.194-53.131 236.119-65.206 341.81h328.447l195.619-341.81zM3627.406 494.509c0 130.428 9.66 191.144 31.396 278.845h287.391c135.243 0 198.034-44.975 198.034-148.418 0-105.691-70.036-139.423-198.034-139.423h-318.787v8.995z" />
<glyph unicode="&#xe92b;" glyph-name="instagram" data-tags="instagram" d="M482.801 949.794c-125.185 0-140.895-0.538-190.063-2.766-49.052-2.228-82.547-10.026-111.856-21.434-30.345-11.792-56.043-27.541-81.664-53.162s-41.37-51.318-53.162-81.664c-11.408-29.308-19.206-62.804-21.434-111.856-2.228-49.167-2.766-64.878-2.766-190.063s0.538-140.895 2.766-190.063c2.228-49.052 10.026-82.547 21.434-111.856 11.792-30.345 27.541-56.043 53.162-81.664s51.318-41.37 81.664-53.162c29.308-11.408 62.804-19.206 111.856-21.434 49.167-2.228 64.878-2.766 190.063-2.766s140.895 0.538 190.063 2.766c49.052 2.228 82.547 10.026 111.856 21.434 30.345 11.792 56.043 27.541 81.664 53.162s41.37 51.318 53.162 81.664c11.408 29.308 19.206 62.804 21.434 111.856 2.228 49.167 2.766 64.878 2.766 190.063s-0.538 140.895-2.766 190.063c-2.228 49.052-10.026 82.547-21.434 111.856-11.792 30.345-27.541 56.043-53.162 81.664s-51.318 41.37-81.664 53.162c-29.308 11.408-62.804 19.206-111.856 21.434-49.167 2.228-64.878 2.766-190.063 2.766zM482.801 866.747c123.072 0 137.669-0.461 186.26-2.689 44.942-2.074 69.334-9.565 85.582-15.864 21.511-8.374 36.876-18.361 53.009-34.494s26.12-31.498 34.494-53.009c6.3-16.248 13.828-40.64 15.864-85.582 2.228-48.591 2.689-63.188 2.689-186.26s-0.461-137.669-2.689-186.26c-2.036-44.942-9.565-69.334-15.864-85.582-8.374-21.511-18.361-36.876-34.494-53.009s-31.498-26.12-53.009-34.494c-16.248-6.3-40.64-13.828-85.582-15.864-48.591-2.228-63.188-2.689-186.26-2.689s-137.669 0.461-186.26 2.689c-44.942 2.036-69.334 9.565-85.582 15.864-21.511 8.374-36.876 18.361-53.009 34.494s-26.12 31.498-34.494 53.009c-6.3 16.248-13.79 40.64-15.864 85.582-2.228 48.591-2.689 63.188-2.689 186.26s0.461 137.669 2.689 186.26c2.074 44.942 9.565 69.334 15.864 85.582 8.374 21.511 18.361 36.876 34.494 53.009s31.498 26.12 53.009 34.494c16.248 6.3 40.64 13.79 85.582 15.864 48.591 2.228 63.188 2.689 186.26 2.689zM482.801 335.202c-84.852 0-153.648 68.796-153.648 153.648s68.796 153.648 153.648 153.648c84.852 0 153.648-68.796 153.648-153.648s-68.796-153.648-153.648-153.648zM482.801 725.545c-130.716 0-236.695-105.979-236.695-236.695s105.979-236.695 236.695-236.695c130.716 0 236.695 105.979 236.695 236.695s-105.979 236.695-236.695 236.695zM784.166 734.902c0-30.538-24.776-55.313-55.313-55.313s-55.313 24.776-55.313 55.313c0 30.538 24.776 55.313 55.313 55.313s55.313-24.776 55.313-55.313z" />
<glyph unicode="&#xe92c;" glyph-name="pinterest" data-tags="pinterest" horiz-adv-x="1229" d="M1213.363 786.713c-42.161-18.678-87.473-31.311-134.98-36.975 48.589 29.083 85.85 75.095 103.319 129.952-45.439-26.92-95.65-46.457-149.298-56.926-42.734 45.661-103.892 74.172-171.509 74.172-129.729 0-234.957-105.228-234.957-234.989 0-18.455 2.005-36.338 6.078-53.521-195.278 9.832-368.441 103.287-484.456 245.553-20.237-34.811-31.756-75.158-31.756-118.242 0-81.459 41.493-153.403 104.496-195.596-38.438 1.177-74.745 11.837-106.501 29.338v-2.864c0-113.947 81.045-208.929 188.596-230.439-19.696-5.505-40.411-8.273-61.921-8.273-15.146 0-29.879 1.4-44.198 4.168 29.911-93.359 116.62-161.326 219.525-163.14-80.472-63.067-181.85-100.614-291.883-100.614-18.965 0-37.706 1.050-56.066 3.246 104.019-66.631 227.543-105.546 360.2-105.546 432.399 0 668.693 358.036 668.693 668.629 0 10.214-0.191 20.396-0.636 30.42 45.948 33.156 85.882 74.554 117.256 121.647z" />
<glyph unicode="&#xe92d;" glyph-name="pinterest1" data-tags="pinterest" horiz-adv-x="569" d="M56.889 631.075h103.561v99.907c0 44.096 1.113 112.064 33.342 154.171 33.982 44.566 80.6 74.847 160.81 74.847 130.669 0 185.692-18.484 185.692-18.484l-25.911-152.375c0 0-43.139 12.433-83.411 12.433-40.3 0-76.37-14.34-76.37-54.319v-116.181h165.18l-11.522-148.811h-153.658v-516.914h-194.152v516.914h-103.561v148.811z" />
<glyph unicode="&#xe93d;" glyph-name="Edit" data-tags="Edit" horiz-adv-x="1097" d="M937.226 863.252c-53.527 53.527-140.634 53.527-194.161 0l-534.94-535.273c-0.997-1.33-1.995-2.66-2.66-3.99l-82.452-246.691c-3.99-11.636 2.327-24.27 14.296-28.26 2.327-0.665 4.655-0.997 6.982-0.997s4.987 0.332 6.982 0.997l246.358 82.119c1.662 0.665 2.992 1.33 3.99 2.66l535.273 535.273c53.86 53.527 53.86 140.634 0.332 194.161zM144.291 70.317l76.468 229.403 152.935-152.935-229.403-76.468zM394.306 157.423l-162.577 162.577 463.127 463.792 162.909-162.909-463.46-463.46zM921.268 684.717l-48.208-47.875-162.244 162.244 47.543 48.208c44.883 44.883 117.694 45.216 162.909 0.332 44.883-44.883 44.883-117.694 0-162.909z" />
<glyph unicode="&#xe94d;" glyph-name="Burrow-Box-Free-Ship" data-tags="Burrow-Box-Free-Ship" horiz-adv-x="1274" d="M1235.603 795.151l0.255 0.127-76.055 127.14c-2.548 4.331-7.262 7.007-12.23 7.007h-653.154c-4.968 0-9.682-2.675-12.23-7.007l-76.055-127.14 0.255-0.127c-1.274-2.166-2.166-4.459-2.166-7.134v-507.796h-222.177c-7.898 0-14.268-6.37-14.268-14.268s6.37-14.268 14.268-14.268h222.049v-155.294h-243.324c-7.898 0-14.268-6.37-14.268-14.268s6.37-14.268 14.268-14.268h243.324v-85.1c0-7.898 6.37-14.268 14.268-14.268h805.263c7.898 0 14.268 6.37 14.268 14.268v805.263c0 2.675-0.892 5.096-2.293 7.134zM1139.42 900.889l58.984-98.604h-363.075v98.604h304.092zM502.573 900.889h304.219v-98.604h-363.203l58.984 98.604zM1209.36-2.978h-776.727v70.832h124.083c7.898 0 14.268 6.37 14.268 14.268s-6.37 14.268-14.268 14.268h-124.083v155.294h57.71c7.898 0 14.268 6.37 14.268 14.268s-6.37 14.268-14.268 14.268h-57.71v493.528h776.599v-776.727zM259.886 155.629h-197.972c-7.898 0-14.268 6.37-14.268 14.268s6.37 14.268 14.268 14.268h197.972c7.898 0 14.268-6.37 14.268-14.268s-6.497-14.268-14.268-14.268zM964.634 389.271c29.173 17.326 41.913 47.391 41.658 81.278-0.255 48.155-34.269 90.833-109.177 90.45l-188.035-1.019c-14.65-57.328-21.657-115.038-21.275-175.041s8.153-117.713 23.313-174.786l182.557 1.019c81.915 0.51 122.426 40.766 122.044 98.858-0.127 26.626-10.701 60.895-51.085 79.24zM766.535 500.614l122.044 0.764c29.301 0.127 46.244-14.523 46.372-41.658 0.127-27.645-17.071-42.040-45.862-42.168l-133-0.764c1.401 32.231 4.714 57.965 10.446 83.826zM891 270.666l-123.063-0.764c-6.625 26.626-10.192 53.251-11.466 87.648l137.969 0.764c30.83 0.255 49.174-15.924 49.429-43.569 0.127-28.027-16.689-43.951-52.869-44.079z" />
</font>
</defs>
</svg>
